# xmcd CD database file
# Copyright (C) 1996 Ti Kan
#
# Track frame offsets:
# 	187
# 	15455
# 	30425
# 	44432
# 	56995
# 	70347
# 	81975
# 	98177
# 	109497
# 	121797
#
# Disc length: 1857 seconds
#
# Revision: 1
# Processed by: cddbd v1.4b41PL1 Copyright (c) Steve Scherf et al.
# Submitted via: DiscPlay 3.4.1
#
DISCID=84073f0a
DTITLE=John Conlee - Greatest Hits
DYEAR=1900
DGENRE=
TTITLE0=Rose Colored Glasses
TTITLE1=Friday Night Blues
TTITLE2=Lady Lay Down
TTITLE3=She Can't Say That Anymore
TTITLE4=Baby' You're Something
TTITLE5=Backside Of Thirty
TTITLE6=Miss Emily's Picture
TTITLE7=Busted
TTITLE8=Common Man
TTITLE9=I Don't Remember Loving You
EXTD=
EXTT0=
EXTT1=
EXTT2=
EXTT3=
EXTT4=
EXTT5=
EXTT6=
EXTT7=
EXTT8=
EXTT9=
PLAYORDER=
